<svg viewBox="0 0 252.7 72.401" xmlns="http://www.w3.org/2000/svg"><g id="svgGroup" stroke-linecap="round" fill-rule="evenodd" font-size="9pt" stroke="#00c8f0" stroke-width="0.25mm" fill="#00c8f0" style="stroke:#00c8f0;stroke-width:0.25mm;fill:#00c8f0"><path d="M 172.4 5.701 L 168.9 13.601 Q 164.7 11.301 160.35 9.801 A 27.36 27.36 0 0 0 154.251 8.48 A 34.225 34.225 0 0 0 150.7 8.301 A 20.13 20.13 0 0 0 143.213 9.671 A 18.919 18.919 0 0 0 139.5 11.651 A 20.295 20.295 0 0 0 134.176 17.068 A 27.457 27.457 0 0 0 131.75 21.501 A 31.614 31.614 0 0 0 129.704 28.231 Q 129.101 31.363 128.95 34.955 A 58.311 58.311 0 0 0 128.9 37.401 Q 128.9 44.709 130.868 50.164 A 26.036 26.036 0 0 0 131.5 51.751 A 24.18 24.18 0 0 0 134.432 56.797 A 19.102 19.102 0 0 0 138.7 60.901 A 17.93 17.93 0 0 0 148.509 64.086 A 21.993 21.993 0 0 0 149.3 64.101 A 22.762 22.762 0 0 0 154.897 63.437 A 18.835 18.835 0 0 0 159.25 61.751 A 40.361 40.361 0 0 0 162.252 59.967 Q 164.538 58.463 166.1 56.901 L 166.1 41.601 L 151.6 41.601 L 151.6 34.101 L 175.1 34.101 L 175.1 71.201 L 166.7 71.201 L 166.7 64.201 A 35.883 35.883 0 0 1 162.322 67.492 A 47.354 47.354 0 0 1 158.2 69.851 A 23.594 23.594 0 0 1 148.794 72.35 A 28.131 28.131 0 0 1 147.1 72.401 A 26.572 26.572 0 0 1 137.787 70.801 A 24.511 24.511 0 0 1 132.7 68.201 Q 126.4 64.001 122.8 56.251 A 37.529 37.529 0 0 1 119.892 46.68 A 51.837 51.837 0 0 1 119.2 38.001 A 56.301 56.301 0 0 1 120.035 28.083 A 42.572 42.572 0 0 1 123 18.251 A 32.73 32.73 0 0 1 128.784 9.303 A 29.455 29.455 0 0 1 133.95 4.851 Q 141.1 0.001 151.2 0.001 Q 157.7 0.001 162.8 1.601 Q 167.9 3.201 172.4 5.701 Z M 41.6 71.201 L 0 71.201 L 0 1.201 L 9.5 1.201 L 9.5 62.701 L 41.6 62.701 L 41.6 71.201 Z M 68.508 71.643 A 36.51 36.51 0 0 0 76.1 72.401 A 38.35 38.35 0 0 0 81.262 72.064 A 30.074 30.074 0 0 0 90 69.551 Q 96.1 66.701 100.4 61.751 Q 104.7 56.801 106.95 50.201 Q 109.2 43.601 109.2 36.101 A 48.215 48.215 0 0 0 109.121 33.323 A 41.439 41.439 0 0 0 106.95 22.101 Q 104.7 15.601 100.4 10.601 Q 96.1 5.601 89.95 2.801 A 29.925 29.925 0 0 0 84.058 0.838 A 36.42 36.42 0 0 0 76.1 0.001 A 39.35 39.35 0 0 0 69.872 0.476 A 29.661 29.661 0 0 0 58.4 4.751 Q 51 9.501 47.05 17.651 A 37.989 37.989 0 0 0 44.215 25.764 A 46.182 46.182 0 0 0 43.1 36.101 A 48.913 48.913 0 0 0 43.135 37.961 A 42.769 42.769 0 0 0 45.35 50.201 A 39.376 39.376 0 0 0 45.789 51.423 A 34.353 34.353 0 0 0 51.85 61.751 Q 56.1 66.701 62.2 69.551 A 29.142 29.142 0 0 0 68.508 71.643 Z M 212.008 71.643 A 36.51 36.51 0 0 0 219.6 72.401 A 38.35 38.35 0 0 0 224.762 72.064 A 30.074 30.074 0 0 0 233.5 69.551 Q 239.6 66.701 243.9 61.751 Q 248.2 56.801 250.45 50.201 Q 252.7 43.601 252.7 36.101 A 48.215 48.215 0 0 0 252.621 33.323 A 41.439 41.439 0 0 0 250.45 22.101 Q 248.2 15.601 243.9 10.601 Q 239.6 5.601 233.45 2.801 A 29.925 29.925 0 0 0 227.558 0.838 A 36.42 36.42 0 0 0 219.6 0.001 A 39.35 39.35 0 0 0 213.372 0.476 A 29.661 29.661 0 0 0 201.9 4.751 Q 194.5 9.501 190.55 17.651 A 37.989 37.989 0 0 0 187.715 25.764 A 46.182 46.182 0 0 0 186.6 36.101 A 48.913 48.913 0 0 0 186.635 37.961 A 42.769 42.769 0 0 0 188.85 50.201 A 39.376 39.376 0 0 0 189.289 51.423 A 34.353 34.353 0 0 0 195.35 61.751 Q 199.6 66.701 205.7 69.551 A 29.142 29.142 0 0 0 212.008 71.643 Z M 219.6 64.201 A 26.517 26.517 0 0 0 225.548 63.566 A 19.316 19.316 0 0 0 232.5 60.501 A 22.47 22.47 0 0 0 239.825 51.63 A 27.252 27.252 0 0 0 240.35 50.451 A 34.108 34.108 0 0 0 242.672 41.522 A 43.503 43.503 0 0 0 243 36.101 Q 243 30.701 241.4 25.701 A 29.735 29.735 0 0 0 237.26 17.374 A 28.121 28.121 0 0 0 236.8 16.751 Q 233.8 12.801 229.45 10.501 A 19.921 19.921 0 0 0 222.033 8.319 A 24.578 24.578 0 0 0 219.6 8.201 A 24.086 24.086 0 0 0 213.108 9.041 A 19.545 19.545 0 0 0 207.05 11.901 A 23.148 23.148 0 0 0 199.449 21.027 A 27.785 27.785 0 0 0 199.05 21.901 A 32.793 32.793 0 0 0 196.596 31.088 A 41.257 41.257 0 0 0 196.3 36.101 Q 196.3 41.501 197.85 46.551 A 29.379 29.379 0 0 0 202.031 55.096 A 27.923 27.923 0 0 0 202.4 55.601 A 21.87 21.87 0 0 0 209.75 61.901 A 19.921 19.921 0 0 0 217.167 64.082 A 24.578 24.578 0 0 0 219.6 64.201 Z M 76.1 64.201 A 26.517 26.517 0 0 0 82.048 63.566 A 19.316 19.316 0 0 0 89 60.501 A 22.47 22.47 0 0 0 96.325 51.63 A 27.252 27.252 0 0 0 96.85 50.451 A 34.108 34.108 0 0 0 99.172 41.522 A 43.503 43.503 0 0 0 99.5 36.101 Q 99.5 30.701 97.9 25.701 A 29.735 29.735 0 0 0 93.76 17.374 A 28.121 28.121 0 0 0 93.3 16.751 Q 90.3 12.801 85.95 10.501 A 19.921 19.921 0 0 0 78.533 8.319 A 24.578 24.578 0 0 0 76.1 8.201 A 24.086 24.086 0 0 0 69.608 9.041 A 19.545 19.545 0 0 0 63.55 11.901 A 23.148 23.148 0 0 0 55.949 21.027 A 27.785 27.785 0 0 0 55.55 21.901 A 32.793 32.793 0 0 0 53.096 31.088 A 41.257 41.257 0 0 0 52.8 36.101 Q 52.8 41.501 54.35 46.551 A 29.379 29.379 0 0 0 58.531 55.096 A 27.923 27.923 0 0 0 58.9 55.601 Q 61.9 59.601 66.25 61.901 A 19.921 19.921 0 0 0 73.667 64.082 A 24.578 24.578 0 0 0 76.1 64.201 Z" vector-effect="non-scaling-stroke"/></g></svg>
